<?xml version="1.0" standalone="no"?>
<!DOCTYPE svg PUBLIC "-//W3C//DTD SVG 20010904//EN"
 "http://www.w3.org/TR/2001/REC-SVG-20010904/DTD/svg10.dtd">
<svg version="1.0" xmlns="http://www.w3.org/2000/svg"
 width="398.000000pt" height="398.000000pt" viewBox="0 0 398.000000 398.000000"
 preserveAspectRatio="xMidYMid meet">
<metadata>
Created by potrace 1.11, written by Peter Selinger 2001-2013
</metadata>
<g transform="translate(0.000000,398.000000) scale(0.100000,-0.100000)"
fill="#000000" stroke="none">
<path d="M3055 3628 c-22 -5 -67 -16 -100 -25 -33 -8 -72 -17 -88 -20 -15 -3
-30 -9 -33 -14 -3 -5 -15 -9 -28 -9 -12 0 -26 -4 -31 -8 -6 -4 -28 -14 -50
-21 -22 -8 -68 -27 -103 -42 -34 -16 -66 -29 -70 -29 -27 0 -139 -159 -206
-293 -22 -42 -43 -77 -48 -77 -17 0 8 107 50 212 6 15 8 29 4 32 -8 5 -63 -21
-149 -70 -26 -15 -66 -36 -87 -48 -22 -12 -51 -33 -66 -48 -31 -31 -80 -123
-99 -188 -22 -75 -24 -77 -29 -56 -4 18 2 43 29 132 10 34 12 64 3 64 -6 0
-126 -80 -134 -89 -3 -4 -23 -19 -45 -35 -60 -44 -306 -294 -344 -349 -46 -68
-71 -135 -102 -279 -11 -54 -9 -140 7 -215 4 -19 2 -33 -3 -33 -19 0 -34 54
-40 147 -3 51 -9 96 -14 98 -13 9 -216 -214 -279 -305 -34 -50 -70 -114 -82
-143 -11 -28 -24 -61 -28 -72 -13 -34 -27 -95 -50 -220 -28 -157 -39 -197 -50
-190 -5 3 -7 34 -4 68 5 58 4 60 -9 37 -9 -13 -21 -66 -28 -117 -13 -94 -29
-116 -29 -40 0 89 -28 116 -43 41 -34 -177 -45 -335 -27 -399 10 -36 17 -45
35 -45 17 0 29 12 48 48 36 69 60 110 107 188 24 38 51 84 61 102 47 81 387
582 409 602 3 3 17 21 30 40 14 19 30 42 37 50 6 8 33 42 59 75 160 202 349
405 439 471 22 16 42 31 45 34 3 3 21 17 40 30 19 13 37 27 40 30 3 3 21 17
40 30 19 13 37 27 40 31 3 3 100 69 215 146 229 152 334 214 555 329 41 21 77
41 80 44 3 3 17 11 31 19 54 27 261 189 364 283 22 21 26 28 13 28 -9 0 -18
-3 -20 -7 -5 -11 -129 -86 -134 -81 -2 3 10 26 27 52 16 27 28 50 25 53 -2 3
-36 -28 -75 -68 -39 -40 -73 -70 -76 -68 -3 3 17 44 45 90 27 46 50 90 50 97
0 14 -65 15 -125 0z"/>
<path d="M3370 3459 c-66 -59 -378 -310 -435 -349 -28 -18 -52 -36 -55 -40 -3
-3 -50 -37 -105 -76 -93 -66 -144 -100 -300 -199 -127 -80 -336 -241 -495
-380 -125 -110 -408 -402 -516 -535 -16 -19 -35 -41 -42 -49 -23 -24 -176
-233 -242 -331 -36 -52 -67 -97 -70 -100 -16 -16 -235 -374 -246 -405 -9 -22
76 -20 118 3 30 16 110 43 308 103 41 13 117 44 168 71 123 63 234 153 146
117 -16 -6 -40 -16 -54 -22 -14 -5 -34 -13 -45 -17 -11 -4 -33 -13 -50 -20
-16 -7 -101 -16 -188 -21 -87 -5 -167 -14 -177 -19 -22 -12 -30 -13 -30 -2 0
16 67 35 220 62 79 14 138 28 168 40 12 6 32 14 45 19 98 39 224 102 385 193
55 31 154 99 150 104 -3 2 -20 -1 -39 -7 -98 -30 -154 -38 -266 -39 -132 0
-168 15 -55 23 137 11 209 29 392 97 47 17 97 35 111 40 72 22 166 75 216 122
52 49 153 188 153 210 0 6 -17 7 -42 3 -96 -15 -382 -17 -438 -3 -33 8 -108
13 -187 12 -73 0 -133 3 -133 7 0 12 78 20 275 29 206 9 261 17 420 62 69 19
110 32 150 48 11 4 36 14 55 21 62 22 164 72 210 103 75 50 140 107 134 118
-6 10 -55 6 -101 -8 -13 -3 -23 -2 -23 2 0 10 47 34 64 34 18 0 116 44 116 53
0 4 -19 7 -42 7 -46 0 -42 10 12 30 117 42 170 84 242 188 27 39 88 162 88
178 0 7 -47 1 -155 -20 -87 -17 -225 -21 -225 -7 0 5 24 11 53 15 167 19 209
30 307 82 72 37 120 85 120 119 0 19 -2 19 -103 -9 -66 -18 -111 -21 -102 -6
3 6 13 10 22 10 18 0 66 20 157 65 60 29 61 31 64 74 2 24 -1 48 -6 53 -6 6
-35 -2 -77 -21 -68 -31 -95 -38 -95 -23 1 8 71 59 117 84 49 27 64 54 50 91
-11 34 -30 57 -44 57 -5 0 -29 -18 -53 -41z m-165 -369 c-3 -5 -10 -10 -16
-10 -5 0 -9 5 -9 10 0 6 7 10 16 10 8 0 12 -4 9 -10z"/>
<path d="M3138 3333 c-1 -5 -25 -19 -53 -33 -27 -13 -61 -32 -75 -41 -14 -9
-41 -26 -61 -37 -76 -42 -84 -47 -89 -52 -3 -3 -16 -11 -30 -19 -14 -8 -54
-32 -89 -54 -35 -21 -79 -47 -97 -58 -19 -10 -50 -28 -69 -39 -34 -19 -286
-188 -376 -252 -246 -176 -459 -372 -649 -598 -30 -36 -58 -67 -61 -70 -15
-13 -194 -247 -267 -350 -45 -63 -85 -119 -89 -125 -11 -13 -30 -44 -240 -372
-18 -29 -33 -55 -33 -59 0 -3 -13 -25 -30 -49 -16 -24 -30 -46 -30 -49 0 -2
-23 -43 -50 -91 -28 -48 -50 -93 -50 -101 0 -24 42 -34 63 -16 9 8 17 22 17
30 0 31 287 520 330 562 3 3 30 41 60 85 30 44 69 100 88 125 19 25 43 58 55
74 150 203 512 593 699 751 39 33 75 65 82 70 80 73 267 209 514 374 167 111
349 236 405 277 56 42 112 83 125 92 12 9 22 20 22 24 0 10 -17 10 -22 1z"/>
<path d="M3390 1230 c-19 -4 -66 -13 -105 -19 -120 -20 -189 -32 -230 -41 -22
-5 -65 -14 -95 -21 -86 -18 -276 -74 -335 -99 -11 -4 -40 -14 -65 -21 -25 -7
-49 -15 -55 -19 -5 -3 -28 -12 -50 -19 -55 -19 -126 -51 -378 -170 -71 -34
-132 -61 -136 -61 -5 0 -21 -6 -37 -14 -59 -28 -123 -55 -206 -85 -158 -57
-175 -63 -283 -92 -105 -27 -141 -35 -275 -59 -36 -6 -74 -14 -85 -16 -32 -8
-315 -34 -366 -34 -33 0 -49 -5 -53 -16 -8 -22 -8 -22 15 -34 15 -9 49 -9 127
0 59 6 152 15 207 21 137 14 254 35 410 75 161 41 210 54 230 63 11 6 49 19
85 31 36 12 74 25 85 30 50 21 105 45 160 70 33 15 92 42 130 60 39 18 97 45
130 60 33 16 96 43 140 60 44 17 96 38 115 47 19 8 44 19 55 24 97 42 461 146
625 178 148 29 274 51 296 51 11 0 29 7 40 15 19 15 19 15 0 30 -21 16 -42 17
-96 5z"/>
<path d="M627 833 c-4 -3 -7 -16 -7 -28 0 -15 10 -24 38 -34 20 -7 47 -17 60
-23 26 -14 40 -4 44 31 3 21 -4 27 -47 43 -53 19 -77 22 -88 11z"/>
<path d="M582 713 c-56 -79 -64 -104 -51 -150 6 -24 9 -63 5 -88 -5 -42 -4
-45 12 -36 10 6 24 17 31 25 7 8 33 27 57 41 24 14 44 29 44 33 0 4 9 39 20
77 11 39 20 74 20 78 0 9 -85 47 -105 47 -8 0 -22 -12 -33 -27z m51 -119 c11
-11 -5 -34 -23 -34 -22 0 -34 15 -25 30 7 11 38 14 48 4z"/>
</g>
</svg>
